<?xml version="1.0" encoding="UTF-8"?><svg id="Layer_2" xmlns="http://www.w3.org/2000/svg" viewBox="0 0 152.2 169.55"><defs><style>.cls-1{stroke-width:0px;}</style></defs><g id="Layer_1-2"><polygon class="cls-1" points="129 30.54 110.12 41.45 102.7 45.74 83.49 56.83 79.84 58.94 76.07 61.12 72.39 58.99 68.66 56.83 49.45 45.73 42.04 41.44 49.46 37.15 68.66 26.06 72.39 23.9 76.08 21.77 79.84 19.59 94.94 10.87 79.84 2.16 76.11 0 72.39 2.15 57.25 10.89 49.83 15.17 30.62 26.26 23.19 30.55 3.98 41.64 22.84 52.54 30.25 56.83 49.44 67.93 56.86 72.22 72.39 81.19 76.07 83.32 79.84 81.14 95.27 72.22 102.7 67.93 121.9 56.84 129.31 52.55 148.21 41.63 129 30.54"/><polygon class="cls-1" points="99.48 129.66 99.48 137.84 106.87 133.57 126 122.52 133.39 118.24 133.4 110.06 126 114.33 106.87 125.39 106.89 104.21 126.01 93.16 133.41 88.88 152.2 78.02 152.2 128.64 133.38 139.5 125.99 143.77 106.86 154.82 99.47 159.09 99.17 159.26 79.66 169.55 79.66 90.64 99.51 79.19 106.9 74.92 126.03 63.87 133.42 59.61 152.2 48.77 152.2 69.85 133.41 80.7 126.02 84.97 106.89 96.03 99.5 100.3 99.49 108.48 99.48 129.66"/><polygon class="cls-1" points="0 46.79 72.56 89.63 72.56 138.66 26.54 113.59 19.15 109.31 19.15 117.5 26.55 121.77 45.67 132.82 53.07 137.09 53.07 137.1 72.56 148.36 72.56 169.55 45.68 154.01 26.56 142.96 26.56 142.95 19.16 138.68 0 127.61 0 77.08 19.13 88.14 26.53 92.41 45.65 103.46 53.05 107.74 53.05 99.56 45.65 95.28 26.53 84.23 19.13 79.96 0 68.9 0 46.79"/></g></svg>